<svg width="131" height="131" viewBox="0 0 131 131" fill="none" xmlns="http://www.w3.org/2000/svg">
<path d="M64.3635 28.7991L16.6559 62.9311C16.2304 63.2359 15.8836 63.6376 15.6441 64.103C15.4047 64.5684 15.2796 65.0841 15.2791 65.6075V65.6153C15.2802 66.1407 15.4066 66.6581 15.6479 67.1247C15.8892 67.5914 16.2383 67.9937 16.6664 68.2982L64.3726 102.21C64.8658 102.561 65.4462 102.769 66.0498 102.811C66.6534 102.853 67.2571 102.728 67.7943 102.45C68.3323 102.173 68.7835 101.753 69.0981 101.236C69.4127 100.719 69.5785 100.126 69.5773 99.5208L69.5773 83.561L112.426 83.5623C112.859 83.5625 113.287 83.4774 113.687 83.3118C114.087 83.1462 114.451 82.9034 114.757 82.5973C115.063 82.2912 115.305 81.9277 115.471 81.5278C115.636 81.1278 115.721 80.6992 115.721 80.2664L115.719 50.7377C115.72 50.3048 115.634 49.8761 115.469 49.4762C115.303 49.0762 115.061 48.7128 114.754 48.4067C114.448 48.1006 114.085 47.8578 113.685 47.6922C113.285 47.5267 112.856 47.4415 112.423 47.4417L69.5799 47.4417V31.478C69.5799 30.2466 68.8856 29.1161 67.7891 28.5476C67.2504 28.2697 66.6454 28.1461 66.0408 28.1905C65.4363 28.2349 64.8558 28.4455 64.3635 28.7991Z" fill="#676767"/>
</svg>
