<svg width="328" height="292" viewBox="0 0 328 292" fill="none" xmlns="http://www.w3.org/2000/svg">
<path d="M175.203 41.2946C181.556 37.3884 185.792 30.3013 185.792 22.3214C185.792 9.98884 175.816 0 163.5 0C151.184 0 141.208 9.98884 141.208 22.3214C141.208 30.3571 145.444 37.3884 151.797 41.2946L119.864 105.246C114.793 115.402 101.641 118.304 92.7797 111.217L43.125 71.4286C45.9115 67.6897 47.5833 63.058 47.5833 58.0357C47.5833 45.7031 37.6078 35.7143 25.2917 35.7143C12.9755 35.7143 3 45.7031 3 58.0357C3 70.3683 12.9755 80.3571 25.2917 80.3571H25.6818L51.15 220.647C54.2151 237.612 68.9833 250 86.2594 250H240.741C257.961 250 272.729 237.667 275.85 220.647L301.318 80.3571H301.708C314.025 80.3571 324 70.3683 324 58.0357C324 45.7031 314.025 35.7143 301.708 35.7143C289.392 35.7143 279.417 45.7031 279.417 58.0357C279.417 63.058 281.089 67.6897 283.875 71.4286L234.22 111.217C225.359 118.304 212.207 115.402 207.136 105.246L175.203 41.2946Z" fill="#FFDB00"/>
</svg>
