<svg width="88" height="88" viewBox="0 0 88 88" fill="none" xmlns="http://www.w3.org/2000/svg">
<path d="M76.505 49.5624C76.828 47.7257 76.9936 45.8648 77 44C77 37.4732 75.0646 31.093 71.4385 25.6662C67.8124 20.2394 62.6585 16.0097 56.6286 13.512C50.5986 11.0143 43.9634 10.3608 37.562 11.6341C31.1607 12.9074 25.2806 16.0504 20.6655 20.6655C16.0504 25.2806 12.9074 31.1607 11.6341 37.562C10.3608 43.9634 11.0143 50.5986 13.512 56.6286C16.0097 62.6585 20.2394 67.8124 25.6662 71.4385C31.093 75.0646 37.4732 77 44 77C46.53 77 48.9867 76.7214 51.3333 76.186" fill="#FFDA6A"/>
<path d="M76.505 49.5624C76.828 47.7257 76.9936 45.8648 77 44C77 37.4732 75.0646 31.093 71.4385 25.6662C67.8124 20.2394 62.6585 16.0097 56.6286 13.512C50.5986 11.0143 43.9634 10.3608 37.562 11.6341C31.1607 12.9074 25.2806 16.0504 20.6655 20.6655C16.0504 25.2806 12.9074 31.1607 11.6341 37.562C10.3608 43.9634 11.0143 50.5986 13.512 56.6286C16.0097 62.6585 20.2394 67.8124 25.6662 71.4385C31.093 75.0646 37.4732 77 44 77C46.53 77 48.9867 76.7213 51.3333 76.186" stroke="#676767" stroke-width="7" stroke-linecap="round" stroke-linejoin="round"/>
<path d="M33 36.666H33.0367H33ZM55 36.666H55.0367H55ZM34.8333 55.916C36.0282 54.6965 37.4544 53.7276 39.0285 53.0662C40.6025 52.4048 42.2927 52.0641 44 52.0641C45.7073 52.0641 47.3975 52.4048 48.9715 53.0662C50.5456 53.7276 51.9718 54.6965 53.1667 55.916M64.4087 64.5547C63.4085 65.5838 62.7323 66.8837 62.4637 68.2934C62.1951 69.703 62.3461 71.1605 62.8978 72.4853C63.4496 73.81 64.3779 74.9437 65.5677 75.746C66.7575 76.5483 68.1566 76.9838 69.5915 76.9987C71.0265 77.0135 72.4343 76.607 73.6405 75.8296C74.8466 75.0521 75.7982 73.9379 76.3773 72.6248C76.9563 71.3118 77.1374 69.8578 76.8981 68.4428C76.6588 67.0279 76.0096 65.7142 75.031 64.6647L69.6667 58.666L64.4087 64.5547Z" fill="#FFDA6A"/>
<path d="M33 36.666H33.0367M55 36.666H55.0367M34.8333 55.916C36.0282 54.6965 37.4544 53.7276 39.0285 53.0662C40.6025 52.4048 42.2927 52.0641 44 52.0641C45.7073 52.0641 47.3975 52.4048 48.9715 53.0662C50.5456 53.7276 51.9718 54.6965 53.1667 55.916M64.4087 64.5547C63.4085 65.5838 62.7323 66.8837 62.4637 68.2934C62.1951 69.703 62.3461 71.1605 62.8978 72.4853C63.4496 73.81 64.3779 74.9437 65.5677 75.746C66.7575 76.5483 68.1566 76.9838 69.5915 76.9987C71.0265 77.0135 72.4343 76.607 73.6405 75.8296C74.8466 75.0521 75.7982 73.9379 76.3773 72.6248C76.9563 71.3118 77.1374 69.8578 76.8981 68.4428C76.6588 67.0279 76.0096 65.7142 75.031 64.6647L69.6667 58.666L64.4087 64.5547Z" stroke="#676767" stroke-width="7" stroke-linecap="round" stroke-linejoin="round"/>
</svg>
