<svg width="183" height="183" viewBox="0 0 183 183" fill="none" xmlns="http://www.w3.org/2000/svg">
<path d="M137.25 61H129.625V45.75C129.625 24.705 112.545 7.625 91.5 7.625C70.455 7.625 53.375 24.705 53.375 45.75V61H45.75C37.3625 61 30.5 67.8625 30.5 76.25V152.5C30.5 160.887 37.3625 167.75 45.75 167.75H137.25C145.637 167.75 152.5 160.887 152.5 152.5V76.25C152.5 67.8625 145.637 61 137.25 61ZM91.5 129.625C83.1125 129.625 76.25 122.762 76.25 114.375C76.25 105.988 83.1125 99.125 91.5 99.125C99.8875 99.125 106.75 105.988 106.75 114.375C106.75 122.762 99.8875 129.625 91.5 129.625ZM68.625 61V45.75C68.625 33.0925 78.8425 22.875 91.5 22.875C104.158 22.875 114.375 33.0925 114.375 45.75V61H68.625Z" fill="#BBBBBB"/>
</svg>
