<svg width="357" height="357" viewBox="0 0 357 357" fill="none" xmlns="http://www.w3.org/2000/svg">
<path d="M289.003 237.823C258.211 269.172 156.383 186.588 178.277 169.212C204.745 148.211 330.95 195.123 289.003 237.823Z" fill="url(#paint0_linear_1069_2)"/>
<path d="M286.326 229.512C263.734 197.493 238.326 182.042 202.208 167.846C201.399 167.539 200.534 166.925 200.59 166.061C200.646 165.196 202.375 165.252 202.012 166.033M258.881 236.345C252.076 233.612 202.933 186.867 183.158 165.308L184.525 166.256" stroke="#87CDDE" stroke-width="0.956" stroke-miterlimit="10" stroke-linecap="round" stroke-linejoin="round"/>
<path d="M265.826 225.802C260.778 208.371 253.889 200.812 247.893 190.967" stroke="#87CDDE" stroke-width="0.956" stroke-miterlimit="10" stroke-linecap="round" stroke-linejoin="round"/>
<path d="M330.615 99.2629C349.135 154.486 174.539 203.769 167.316 172.057C157.359 128.548 307.717 31.0424 330.615 99.2629Z" fill="url(#paint1_linear_1069_2)"/>
<path d="M308.079 88.2178C257.151 107.602 216.905 136.943 178.918 175.069M322.889 104.701C279.994 139.453 235.034 163.048 181.261 178.193" stroke="#87CDDE" stroke-width="0.956" stroke-miterlimit="10" stroke-linecap="round" stroke-linejoin="round"/>
<path d="M271.738 86.7119C256.872 100.099 250.206 110.084 243.512 121.352M317.227 92.9873C304.063 104.004 294.078 114.128 288.611 130.221M254.975 149.047C238.325 152.45 226.081 152.729 211.41 147.346" stroke="#87CDDE" stroke-width="0.956" stroke-miterlimit="10" stroke-linecap="round" stroke-linejoin="round"/>
<path d="M67.997 237.823C98.7882 269.172 200.617 186.588 178.723 169.212C152.255 148.211 26.0495 195.123 67.997 237.823Z" fill="url(#paint2_linear_1069_2)"/>
<path d="M70.8145 224.52C95.8323 196.072 120.571 184.106 154.793 167.846C155.574 167.484 156.467 166.926 156.411 166.061C156.355 165.197 154.626 165.252 154.988 166.033M110.28 225.803C120.655 218.858 154.068 186.84 173.842 165.28L172.476 166.229" stroke="#87CDDE" stroke-width="0.956" stroke-miterlimit="10" stroke-linecap="round" stroke-linejoin="round"/>
<path d="M87.8555 227.644C90.8677 217.296 117.308 192.892 122.914 183.716" stroke="#87CDDE" stroke-width="0.956" stroke-miterlimit="10" stroke-linecap="round" stroke-linejoin="round"/>
<path d="M26.4126 93.0987C7.86537 148.322 182.489 197.605 189.712 165.893C199.641 122.356 49.2829 24.8783 26.4126 93.0987Z" fill="url(#paint3_linear_1069_2)"/>
<path d="M48.1391 82.0547C99.0952 101.439 140.067 130.752 178.054 168.906M36.5645 109.304C79.4602 144.056 121.938 156.885 175.739 172.03" stroke="#87CDDE" stroke-width="0.956" stroke-miterlimit="10" stroke-linecap="round" stroke-linejoin="round"/>
<path d="M81.8868 82.4727C93.6845 90.3378 98.8721 96.167 103.753 109.276M46.7725 94.3541C59.9368 105.371 67.1326 117.308 72.5992 133.401M86.2935 119.344C106.709 128.827 131.448 146.259 145.589 146.733" stroke="#87CDDE" stroke-width="0.956" stroke-miterlimit="10" stroke-linecap="round" stroke-linejoin="round"/>
<path d="M141.071 247.92C136.496 248.757 132.201 252.494 131.504 257.096C131.169 259.383 131.839 261.67 132.508 263.874C134.321 269.759 136.218 275.588 138.198 281.417C139.286 284.596 140.875 288.194 144.139 288.975C146.314 289.505 148.629 288.501 150.219 286.911C151.808 285.321 152.785 283.258 153.649 281.194C157.665 271.599 162.351 267.444 162.518 257.068C162.714 243.848 150.888 246.163 141.071 247.92Z" fill="url(#paint4_linear_1069_2)"/>
<path d="M155.183 251.796L191.441 239.469C191.441 238.269 180.006 207.98 180.006 207.98L202.96 167.26C207.841 176.464 222.79 219.415 227.615 241.756C229.428 250.151 226.277 261.112 213.726 264.375C199.725 268.001 186.198 269.73 168.404 271.571C150.637 273.411 144.501 256.566 155.183 251.796Z" fill="url(#paint5_linear_1069_2)"/>
<path d="M191.441 239.497L162.519 249.315L166.367 271.683C166.367 271.683 187.425 270.009 199.418 267.471C211.411 264.961 191.441 239.497 191.441 239.497Z" fill="url(#paint6_linear_1069_2)"/>
<path d="M182.572 207.645C181.735 195.094 179.197 181.651 176.631 168.738L175.459 168.013L144.612 192.724L140.485 260.972L131.504 305.235C127.153 305.792 122.663 307.605 120.961 311.566C120.069 313.685 120.125 316.084 120.236 318.399C120.515 324.535 120.878 330.671 121.352 336.807C121.603 340.154 122.244 344.03 125.201 345.62C127.181 346.68 129.663 346.29 131.588 345.146C133.512 344.03 134.99 342.245 136.329 340.488C140.429 335.078 146.509 322.861 146.509 322.861C146.509 322.861 163.829 290.759 170.132 268.865C178.806 238.548 182.153 207.562 182.572 207.645Z" fill="url(#paint7_linear_1069_2)"/>
<path d="M83.6995 209.626C75.7228 207.73 69.6148 204.913 65.4591 203.518C61.2755 202.124 61.136 194.175 69.8937 196.741C74.8861 198.191 72.9059 194.844 68.8059 192.697C64.706 190.521 54.3028 195.709 51.8484 193.394C50.1471 191.804 50.3981 189.517 51.3464 188.652C54.5538 185.808 62.2237 183.102 68.9733 183.409C74.9976 183.688 84.4526 192.585 90.2538 191.051C90.2817 191.051 101.326 171.416 111.423 153.482L127.767 124.448L158.112 137.334C158.112 137.334 106.514 198.331 103.809 200.841C97.7564 206.475 92.1783 211.662 83.6995 209.626Z" fill="url(#paint8_linear_1069_2)"/>
<path d="M291.011 137.389C290.788 137.138 290.537 136.915 290.286 136.664C289.239 135.735 287.952 135.117 286.572 134.881C285.192 134.644 283.774 134.798 282.477 135.325C278.99 136.692 266.746 144.976 263.762 146.761L249.705 155.211L233.361 127.99L207.562 141.322L237.266 176.046C240.446 180.815 247.223 182.851 252.299 180.174C252.299 180.174 252.522 180.006 252.885 179.755C253.638 179.421 254.391 178.974 255.06 178.472C263.651 171.667 281.835 156.411 284.513 153.845C288.668 149.745 296.422 143.302 291.011 137.389Z" fill="url(#paint9_linear_1069_2)"/>
<path d="M288.974 133.708L291.875 137.25L288.751 152.423L285.572 152.757L272.603 164.053L275.392 140.318C275.392 140.318 274.611 140.151 280.077 139.426C285.516 138.728 288.974 133.708 288.974 133.708Z" fill="url(#paint10_linear_1069_2)"/>
<path d="M308.08 59.5182L307.829 59.4346L282.309 173.702C282.269 173.875 282.263 174.053 282.291 174.227C282.32 174.402 282.383 174.569 282.476 174.719C282.569 174.869 282.691 175 282.835 175.103C282.978 175.206 283.141 175.28 283.313 175.32C283.485 175.36 283.663 175.366 283.838 175.338C284.012 175.309 284.179 175.246 284.33 175.153C284.48 175.06 284.61 174.938 284.713 174.794C284.816 174.651 284.89 174.488 284.931 174.316V174.288L308.08 59.5182Z" fill="#6D4C41" stroke="#6D4C41" stroke-miterlimit="10"/>
<path d="M310.673 41.167L303.701 50.7614L291.875 50.4825L298.848 60.0489L294.915 71.2331L306.183 67.5515L315.582 74.7752V62.9217L325.344 56.1721L314.048 52.5185L310.673 41.167Z" fill="#FFD600"/>
<path d="M291.596 141.712C292.21 141.572 292.656 141.377 293.158 140.987L290.955 151.836L285.795 152.003L288.389 140.373C289.253 141.154 290.257 142.046 291.596 141.712Z" fill="#6D4C41"/>
<path d="M212.889 149.438L213.28 193.394L189.656 211.857C187.425 213.084 184.915 213.726 182.377 213.726C179.922 213.754 177.496 213.196 175.293 212.108L144.585 194.035L144.222 150.052L122.914 130.612C122.914 130.612 125.843 119.288 146.342 113.041C153.873 110.754 163.774 109.136 176.771 109.025C191.135 108.913 202.04 110.67 210.24 113.236C229.679 119.26 234.086 129.636 234.086 129.636L212.889 149.438Z" fill="url(#paint11_linear_1069_2)"/>
<path d="M290.202 145.756C289.756 147.597 290.899 149.466 292.712 149.884L297.426 151.027C298.306 151.242 299.235 151.098 300.01 150.627C300.784 150.157 301.339 149.398 301.554 148.517C301.768 147.637 301.624 146.708 301.153 145.934C300.683 145.159 299.924 144.604 299.043 144.39L294.33 143.246C292.517 142.772 290.648 143.915 290.202 145.756Z" fill="url(#paint12_linear_1069_2)"/>
<path d="M290.453 140.541C290.258 142.437 291.652 144.111 293.549 144.306L299.852 144.948C301.749 145.143 303.422 143.748 303.617 141.852C303.812 139.955 302.418 138.282 300.521 138.086L294.218 137.445C292.321 137.25 290.648 138.644 290.453 140.541Z" fill="url(#paint13_linear_1069_2)"/>
<path d="M290.006 134.573C290.006 134.573 291.54 138.198 293.381 138.198L300.409 138.17C302.278 138.143 303.784 136.636 303.756 134.768V134.489C303.756 132.62 302.222 131.114 300.354 131.142L293.325 131.17C291.484 131.17 289.978 132.704 290.006 134.573Z" fill="url(#paint14_linear_1069_2)"/>
<path d="M288.557 130.724C288.975 132.536 290.788 133.68 292.601 133.262L300.075 131.532C300.947 131.32 301.7 130.775 302.175 130.014C302.649 129.253 302.807 128.336 302.614 127.46C302.195 125.647 300.382 124.504 298.569 124.922L291.095 126.651C289.254 127.098 288.166 128.911 288.557 130.724Z" fill="url(#paint15_linear_1069_2)"/>
<path d="M300.243 144.947C298.96 143.999 297.565 143.637 296.171 143.386C294.748 143.19 293.326 143.135 291.792 143.609C293.075 144.557 294.469 144.947 295.864 145.171C297.286 145.394 298.709 145.449 300.243 144.947ZM300.773 138.114C299.406 137.417 298.039 137.25 296.673 137.25C295.306 137.278 293.94 137.473 292.601 138.226C293.967 138.951 295.334 139.09 296.701 139.09C298.039 139.035 299.406 138.867 300.773 138.114ZM292.21 133.568C293.856 133.875 295.362 133.624 296.84 133.261C298.291 132.843 299.713 132.285 300.996 131.197C299.35 130.891 297.844 131.114 296.366 131.504C294.916 131.895 293.493 132.452 292.21 133.568Z" fill="#EDA600"/>
<path d="M298.513 134.238C299.88 136.413 297.147 138.561 295.501 138.868C293.884 139.175 292.712 137.808 291.987 136.33C290.62 133.624 289.561 132.453 288.584 131.979C287.692 131.533 288.501 137.641 282.504 138.896C279.046 139.621 276.145 137.166 276.117 134.684C276.089 131.365 281.863 125.954 289.254 124.644C296.199 125.201 297.844 133.206 298.513 134.238Z" fill="url(#paint16_linear_1069_2)"/>
<path d="M280.05 139.425C284.038 140.095 288.054 136.831 289.226 132.955L289.337 132.592L289.393 132.397C289.449 132.229 289.421 132.313 289.393 132.397C289.309 132.592 289.086 132.731 288.891 132.731C288.696 132.759 288.389 132.536 288.361 132.397L289.003 133.708C289.449 134.572 289.923 135.409 290.425 136.246C291.29 137.808 292.796 140.039 295.334 140.178C297.705 140.29 300.131 138.254 299.713 135.632C299.239 133.652 298.513 131.811 297.398 130.166C295.194 126.902 293.8 124.085 289.309 124.643C293.131 125.173 294.776 127.516 296.394 130.779C297.23 132.397 297.872 134.182 298.207 135.911C298.43 137.222 296.84 138.588 295.473 138.393C294.776 138.337 294.107 138.003 293.521 137.445C292.935 136.915 292.517 136.134 292.015 135.325C291.541 134.516 291.094 133.708 290.648 132.871L290.007 131.644C289.895 131.309 289.365 130.919 288.919 130.946C288.473 130.946 288.027 131.225 287.831 131.616C287.72 131.867 287.748 131.923 287.72 131.951L287.692 132.118L287.608 132.425C287.134 134.126 286.186 135.66 284.931 136.887C284.289 137.473 283.508 137.975 282.699 138.337C281.807 138.728 280.942 138.923 280.05 139.425Z" fill="#EDA600"/>
<path d="M190.131 109.499V96.7246H165.921V109.499C158.084 110.168 151.641 111.423 146.37 113.013C148.824 122.356 160.399 132.452 178.612 132.313C196.322 132.174 207.59 122.384 210.268 113.208C204.801 111.535 198.163 110.196 190.131 109.499Z" fill="url(#paint17_linear_1069_2)"/>
<path d="M144.948 22.9822C137.055 23.8189 129.831 27.9746 124.141 33.3854C119.288 38.0152 111.535 51.2633 103.335 43.7886C100.602 41.3063 103.614 36.8438 103.614 36.8438C103.614 36.8438 95.1072 38.1547 97.9241 47.3586C97.9241 47.3586 76.3089 37.569 70.3682 55.8373C70.3682 55.8373 73.9661 50.9844 79.9625 51.3748C83.7557 51.6259 86.9352 54.2755 89.5569 56.9809C92.1786 59.6584 94.3262 62.7542 96.9479 65.4317C102.889 71.4561 111.256 75.4445 119.846 75.4445C132.676 75.4445 144.752 65.1807 151.223 59.6026C154.849 56.4788 168.878 30.9868 173.396 27.8352C179.699 23.4005 152.841 22.1455 144.948 22.9822Z" fill="url(#paint18_linear_1069_2)"/>
<path d="M206 60.1605L198.553 59.9932L158.195 59.1565L150.748 58.9891C144.78 58.8775 139.815 63.9536 139.676 70.3127C139.536 76.6439 144.306 81.9431 150.274 82.0825L157.721 82.2499L198.079 83.0866L205.526 83.254C211.494 83.3655 216.459 78.2894 216.598 71.9304C216.738 65.5713 211.94 60.3 206 60.1605Z" fill="#E59600"/>
<path d="M179.448 28.4765C196.071 28.9506 211.104 41.7524 210.323 67.9696C209.709 88.9992 196.322 101.076 184.859 104.757C182.125 105.65 179.504 106.04 177.189 105.985C174.874 105.929 172.308 105.371 169.658 104.339C158.418 100.016 145.728 87.1863 146.342 66.101C147.095 39.9117 162.825 28.0024 179.448 28.4765Z" fill="#FFCA28"/>
<path d="M188.987 59.3236C189.907 58.1521 192.027 56.5066 196.071 56.6182C200.088 56.7297 202.124 58.5147 202.96 59.7419C203.351 60.2718 203.211 60.8854 202.932 61.248C202.653 61.5827 201.9 61.8616 201.092 61.5827C200.255 61.2759 198.665 60.3834 195.96 60.2997C193.254 60.2439 191.609 61.0249 190.744 61.3038C189.907 61.5548 189.154 61.2201 188.931 60.8854C188.652 60.4392 188.569 59.8256 188.987 59.3236ZM154.961 58.4032C155.881 57.2318 158.001 55.5862 162.045 55.6978C166.061 55.8093 168.097 57.5943 168.934 58.8215C169.324 59.3514 169.185 59.965 168.906 60.3276C168.627 60.6623 167.874 60.9412 167.065 60.6623C166.228 60.3555 164.639 59.463 161.933 59.3793C159.228 59.3236 157.582 60.1045 156.718 60.3834C155.881 60.6344 155.128 60.2997 154.905 59.965C154.757 59.7289 154.683 59.4539 154.693 59.1755C154.703 58.8972 154.796 58.6282 154.961 58.4032Z" fill="#6D4C41"/>
<path d="M166.919 67.806C166.978 64.9569 164.792 62.6006 162.035 62.543C159.279 62.4853 156.996 64.7482 156.936 67.5972C156.876 70.4463 159.063 72.8026 161.819 72.8602C164.576 72.9179 166.859 70.655 166.919 67.806Z" fill="#404040"/>
<path d="M200.228 68.5111C200.288 65.662 198.101 63.3057 195.345 63.248C192.588 63.1904 190.305 65.4533 190.246 68.3023C190.186 71.1513 192.372 73.5077 195.129 73.5653C197.886 73.623 200.169 71.3601 200.228 68.5111Z" fill="#404040"/>
<path d="M182.321 77.5083C182.218 77.4545 182.103 77.4258 181.987 77.4246L174.819 77.2852C174.707 77.2852 174.596 77.313 174.484 77.3688C173.843 77.6198 173.452 78.2892 173.759 79.0144C174.038 79.7395 175.432 81.7755 178.305 81.8313C181.178 81.8871 182.656 79.9069 182.963 79.2096C183.298 78.4566 182.963 77.7872 182.321 77.5083Z" fill="#E59600"/>
<path d="M187.257 85.8191C183.966 87.6877 173.256 87.4646 170.021 85.4565C168.18 84.313 166.228 85.9585 166.953 87.6877C167.678 89.3891 173.451 93.3774 178.472 93.489C183.52 93.6005 189.349 89.8353 190.158 88.1619C191.023 86.4884 189.154 84.7592 187.257 85.8191Z" fill="#795548"/>
<path d="M216.599 67.6909C221.759 52.3789 220.643 33.3296 207.311 21.9503C199.112 14.9497 188.513 12.328 178.026 12.5511C163.69 12.8858 149.522 18.3803 142.773 32.2419C138.533 40.9159 138.115 49.7572 139.37 59.1285C141.043 71.1214 147.542 79.5165 147.542 79.5165C147.542 79.5165 146.621 75.7513 146.37 68.3882C146.231 64.595 147.291 54.917 151.642 53.9129C175.823 46.5219 187.174 35.4493 187.174 35.4493C189.127 39.6887 192.613 44.7648 196.127 47.6096C197.884 49.0321 199.753 50.3429 201.538 51.7374C202.933 52.7973 207.395 55.0843 208.455 58.1802C212.415 71.9582 207.2 83.477 207.2 83.477C207.2 83.477 213.977 77.8431 216.599 67.6909Z" fill="url(#paint19_radial_1069_2)"/>
<defs>
<linearGradient id="paint0_linear_1069_2" x1="288.359" y1="241.483" x2="217.651" y2="183.152" gradientUnits="userSpaceOnUse">
<stop stop-color="#80FFEE"/>
<stop offset="0.156" stop-color="#85FCED"/>
<stop offset="0.34" stop-color="#93F1E8"/>
<stop offset="0.539" stop-color="#ABE1E1"/>
<stop offset="0.748" stop-color="#CCC9D8"/>
<stop offset="0.962" stop-color="#F7ACCB"/>
<stop offset="1" stop-color="#FFA6C9"/>
</linearGradient>
<linearGradient id="paint1_linear_1069_2" x1="319.662" y1="92.8618" x2="173.62" y2="173.76" gradientUnits="userSpaceOnUse">
<stop stop-color="#80FFEE"/>
<stop offset="0.156" stop-color="#85FCED"/>
<stop offset="0.34" stop-color="#93F1E8"/>
<stop offset="0.539" stop-color="#ABE1E1"/>
<stop offset="0.748" stop-color="#CCC9D8"/>
<stop offset="0.962" stop-color="#F7ACCB"/>
<stop offset="1" stop-color="#FFA6C9"/>
</linearGradient>
<linearGradient id="paint2_linear_1069_2" x1="68.7304" y1="241.446" x2="139.438" y2="183.115" gradientUnits="userSpaceOnUse">
<stop stop-color="#80FFEE"/>
<stop offset="0.156" stop-color="#85FCED"/>
<stop offset="0.34" stop-color="#93F1E8"/>
<stop offset="0.539" stop-color="#ABE1E1"/>
<stop offset="0.748" stop-color="#CCC9D8"/>
<stop offset="0.962" stop-color="#F7ACCB"/>
<stop offset="1" stop-color="#FFA6C9"/>
</linearGradient>
<linearGradient id="paint3_linear_1069_2" x1="37.1831" y1="86.6671" x2="183.218" y2="167.573" gradientUnits="userSpaceOnUse">
<stop stop-color="#80FFEE"/>
<stop offset="0.156" stop-color="#85FCED"/>
<stop offset="0.34" stop-color="#93F1E8"/>
<stop offset="0.539" stop-color="#ABE1E1"/>
<stop offset="0.748" stop-color="#CCC9D8"/>
<stop offset="0.962" stop-color="#F7ACCB"/>
<stop offset="1" stop-color="#FFA6C9"/>
</linearGradient>
<linearGradient id="paint4_linear_1069_2" x1="130.647" y1="266.088" x2="161.487" y2="269.037" gradientUnits="userSpaceOnUse">
<stop stop-color="#FFB300"/>
<stop offset="0.575" stop-color="#FFCA28"/>
</linearGradient>
<linearGradient id="paint5_linear_1069_2" x1="192.052" y1="181.869" x2="188.594" y2="262.877" gradientUnits="userSpaceOnUse">
<stop stop-color="#FFB300"/>
<stop offset="0.575" stop-color="#FFCA28"/>
</linearGradient>
<linearGradient id="paint6_linear_1069_2" x1="174.266" y1="255.144" x2="196.643" y2="257.286" gradientUnits="userSpaceOnUse">
<stop stop-color="#FFB300"/>
<stop offset="0.575" stop-color="#FFCA28" stop-opacity="0"/>
</linearGradient>
<linearGradient id="paint7_linear_1069_2" x1="166.336" y1="190.136" x2="135.657" y2="336.096" gradientUnits="userSpaceOnUse">
<stop stop-color="#FFB300"/>
<stop offset="0.575" stop-color="#FFCA28"/>
</linearGradient>
<linearGradient id="paint8_linear_1069_2" x1="142.975" y1="167.258" x2="54.1996" y2="167.258" gradientUnits="userSpaceOnUse">
<stop stop-color="#FFB300"/>
<stop offset="0.575" stop-color="#FFCA28"/>
</linearGradient>
<linearGradient id="paint9_linear_1069_2" x1="213.804" y1="154.682" x2="286.2" y2="154.682" gradientUnits="userSpaceOnUse">
<stop stop-color="#FFB300"/>
<stop offset="0.575" stop-color="#FFCA28"/>
</linearGradient>
<linearGradient id="paint10_linear_1069_2" x1="276.232" y1="147.969" x2="285.882" y2="149.891" gradientUnits="userSpaceOnUse">
<stop offset="0.437" stop-color="#FFCA28" stop-opacity="0"/>
<stop offset="1" stop-color="#FFB300"/>
</linearGradient>
<linearGradient id="paint11_linear_1069_2" x1="178.5" y1="81.4714" x2="178.5" y2="214.281" gradientUnits="userSpaceOnUse">
<stop stop-color="#2CD1C9"/>
<stop offset="0.188" stop-color="#609CB7"/>
<stop offset="0.376" stop-color="#8C6FA9"/>
<stop offset="0.555" stop-color="#AE4C9D"/>
<stop offset="0.723" stop-color="#C73395"/>
<stop offset="0.876" stop-color="#D62490"/>
<stop offset="1" stop-color="#DB1F8E"/>
</linearGradient>
<linearGradient id="paint12_linear_1069_2" x1="291.12" y1="147.148" x2="303.182" y2="147.148" gradientUnits="userSpaceOnUse">
<stop stop-color="#FFB300"/>
<stop offset="0.575" stop-color="#FFCA28"/>
</linearGradient>
<linearGradient id="paint13_linear_1069_2" x1="291.119" y1="141.194" x2="303.182" y2="141.194" gradientUnits="userSpaceOnUse">
<stop stop-color="#FFB300"/>
<stop offset="0.575" stop-color="#FFCA28"/>
</linearGradient>
<linearGradient id="paint14_linear_1069_2" x1="291.119" y1="134.651" x2="303.182" y2="134.651" gradientUnits="userSpaceOnUse">
<stop stop-color="#FFB300"/>
<stop offset="0.575" stop-color="#FFCA28"/>
</linearGradient>
<linearGradient id="paint15_linear_1069_2" x1="291.12" y1="129.106" x2="303.182" y2="129.106" gradientUnits="userSpaceOnUse">
<stop stop-color="#FFB300"/>
<stop offset="0.575" stop-color="#FFCA28"/>
</linearGradient>
<linearGradient id="paint16_linear_1069_2" x1="296.232" y1="128.975" x2="279.885" y2="138.313" gradientUnits="userSpaceOnUse">
<stop stop-color="#FFB300"/>
<stop offset="0.575" stop-color="#FFCA28"/>
</linearGradient>
<linearGradient id="paint17_linear_1069_2" x1="178.291" y1="110.16" x2="178.291" y2="135.002" gradientUnits="userSpaceOnUse">
<stop stop-color="#FFB300"/>
<stop offset="0.63" stop-color="#FFCA28"/>
</linearGradient>
<linearGradient id="paint18_linear_1069_2" x1="70.3235" y1="49.0767" x2="174.277" y2="49.0767" gradientUnits="userSpaceOnUse">
<stop offset="0.345" stop-color="#B346BD"/>
<stop offset="1" stop-color="#762D7D"/>
</linearGradient>
<radialGradient id="paint19_radial_1069_2" cx="0" cy="0" r="1" gradientUnits="userSpaceOnUse" gradientTransform="translate(176.077 18.618) rotate(180) scale(38.4259 39.7688)">
<stop offset="0.005" stop-color="#D553E0"/>
<stop offset="1" stop-color="#B346BD"/>
</radialGradient>
</defs>
</svg>
