<svg width="114" height="113" viewBox="0 0 114 113" fill="none" xmlns="http://www.w3.org/2000/svg">
<g filter="url(#filter0_d_789_5)">
<path d="M44.7102 21.4823C50.1497 11.8274 52.8673 7 56.9329 7C60.9986 7 63.7161 11.8274 69.1556 21.4823L70.5638 23.981C72.1093 26.7262 72.8821 28.0987 74.0842 29.0039C75.2863 29.909 76.7889 30.2447 79.7941 30.9162L82.5246 31.5281C93.0859 33.8951 98.3622 35.0764 99.6201 39.0752C100.874 43.0697 97.276 47.2385 90.0763 55.5717L88.2131 57.7262C86.1695 60.0932 85.1435 61.2788 84.6841 62.7406C84.2247 64.2067 84.3793 65.7875 84.6884 68.9449L84.9717 71.8218C86.0579 82.9427 86.6031 88.5011 83.3146 90.97C80.026 93.4432 75.0802 91.1867 65.1973 86.6823L62.6343 85.5179C59.8265 84.2346 58.4226 83.5971 56.9329 83.5971C55.4432 83.5971 54.0393 84.2346 51.2273 85.5179L48.6728 86.6823C38.7856 91.1867 33.8398 93.439 30.5555 90.9743C27.2627 88.5011 27.8079 82.9427 28.8941 71.8218L29.1774 68.9491C29.4865 65.7875 29.6411 64.2067 29.1774 62.7449C28.7224 61.2788 27.6963 60.0932 25.6527 57.7305L23.7895 55.5717C16.5898 47.2427 12.9921 43.074 14.2457 39.0752C15.5036 35.0764 20.7842 33.8908 31.3455 31.5281L34.076 30.9162C37.0769 30.2447 38.5752 29.909 39.7816 29.0039C40.9837 28.0987 41.7565 26.7262 43.302 23.981L44.7102 21.4823Z" fill="url(#paint0_linear_789_5)"/>
<path d="M46.017 22.2187L46.0171 22.2186C48.7615 17.3472 50.7389 13.8444 52.5231 11.5385C54.3044 9.23623 55.6126 8.5 56.9329 8.5C58.2532 8.5 59.5614 9.23623 61.3427 11.5385C63.1269 13.8444 65.1043 17.3472 67.8488 22.2186L67.8488 22.2187L69.2567 24.7169C69.2568 24.7171 69.2569 24.7172 69.257 24.7174C69.3112 24.8138 69.3648 24.9089 69.4176 25.0028C70.8061 27.4712 71.7254 29.1055 73.1819 30.2022C74.6466 31.3051 76.4522 31.7077 79.1513 32.3096C79.2552 32.3328 79.3605 32.3562 79.4671 32.3801L82.1966 32.9918C87.5279 34.1866 91.3516 35.0476 94.0159 36.0871C96.6544 37.1165 97.7635 38.173 98.1889 39.5243C98.6163 40.8861 98.3123 42.4386 96.7524 44.8915C95.1832 47.3593 92.5737 50.3867 88.9418 54.5905C88.9416 54.5907 88.9414 54.5909 88.9413 54.5911L87.0785 56.745L87.0777 56.746C87.0039 56.8315 86.931 56.9158 86.859 56.9991C85.0216 59.1257 83.8054 60.5332 83.2531 62.2909L83.2527 62.2921C82.7008 64.0536 82.8845 65.9243 83.1648 68.7782C83.1749 68.8812 83.1852 68.9855 83.1955 69.091L83.1956 69.0919L83.4788 71.9676C84.0267 77.5769 84.4182 81.6178 84.2852 84.573C84.1524 87.523 83.5097 88.9478 82.414 89.7705L82.413 89.7712C81.3356 90.5814 79.867 90.774 77.1383 89.9997C74.3916 89.2204 70.8085 87.5913 65.8194 85.3174L65.8177 85.3166L63.2578 84.1537C63.1688 84.113 63.0808 84.0727 62.9939 84.0329C60.4556 82.8718 58.7621 82.0971 56.9329 82.0971C55.106 82.0971 53.4141 82.87 50.8771 84.0288C50.7873 84.0698 50.6964 84.1113 50.6045 84.1533L48.0509 85.3173C43.06 87.5911 39.4755 89.2193 36.7286 89.9987C33.9993 90.7731 32.5314 90.5813 31.4564 89.7749C30.3578 88.9497 29.7144 87.5231 29.5811 84.5732C29.4476 81.6177 29.8391 77.5769 30.387 71.9676L30.6702 69.0964L30.6703 69.0951C30.6808 68.9876 30.6912 68.8815 30.7015 68.7767C30.9812 65.9257 31.1649 64.0535 30.6086 62.2957C30.0589 60.5292 28.838 59.1186 26.997 56.9916C26.9281 56.912 26.8584 56.8314 26.7877 56.7498C26.7876 56.7496 26.7874 56.7494 26.7872 56.7492L24.925 54.5916L24.9243 54.5908C21.2921 50.3889 18.6826 47.3624 17.1134 44.8947C15.5543 42.443 15.2495 40.8891 15.6767 39.525C16.102 38.1734 17.2121 37.1156 19.8521 36.0855C22.5173 35.0456 26.342 34.1845 31.673 32.9919L31.6735 32.9918L34.4035 32.38C34.4036 32.3799 34.4038 32.3799 34.404 32.3798C34.5078 32.3566 34.6104 32.3337 34.7116 32.3111C37.4123 31.7079 39.213 31.3057 40.6818 30.2037L40.6839 30.2022C42.1404 29.1055 43.0596 27.4713 44.4482 25.0029C44.5011 24.9087 44.5548 24.8134 44.6091 24.7169L46.017 22.2187Z" stroke="#5BAB1C" stroke-width="3"/>
</g>
<defs>
<filter id="filter0_d_789_5" x="0" y="0" width="113.865" height="112.989" filterUnits="userSpaceOnUse" color-interpolation-filters="sRGB">
<feFlood flood-opacity="0" result="BackgroundImageFix"/>
<feColorMatrix in="SourceAlpha" type="matrix" values="0 0 0 0 0 0 0 0 0 0 0 0 0 0 0 0 0 0 127 0" result="hardAlpha"/>
<feOffset dy="7"/>
<feGaussianBlur stdDeviation="7"/>
<feComposite in2="hardAlpha" operator="out"/>
<feColorMatrix type="matrix" values="0 0 0 0 0 0 0 0 0 0 0 0 0 0 0 0 0 0 0.35 0"/>
<feBlend mode="normal" in2="BackgroundImageFix" result="effect1_dropShadow_789_5"/>
<feBlend mode="normal" in="SourceGraphic" in2="effect1_dropShadow_789_5" result="shape"/>
</filter>
<linearGradient id="paint0_linear_789_5" x1="56.9329" y1="7" x2="56.9329" y2="91.9896" gradientUnits="userSpaceOnUse">
<stop stop-color="#E8E6E6"/>
<stop offset="0.58125" stop-color="#BBBBBB"/>
</linearGradient>
</defs>
</svg>
