<svg width="127" height="125" viewBox="0 0 127 125" fill="none" xmlns="http://www.w3.org/2000/svg">
<g filter="url(#filter0_d_789_3)">
<path d="M49.2785 23.5289C55.4867 12.5096 58.5883 7 63.2285 7C67.8687 7 70.9703 12.5096 77.1785 23.5289L78.7856 26.3807C80.5496 29.5138 81.4316 31.0803 82.8036 32.1134C84.1755 33.1464 85.8905 33.5296 89.3204 34.2959L92.4367 34.9943C104.49 37.6957 110.512 39.044 111.948 43.6079C113.379 48.1669 109.273 52.9248 101.056 62.4357L98.9291 64.8946C96.5967 67.5961 95.4257 68.9492 94.9014 70.6176C94.3771 72.2909 94.5535 74.0951 94.9063 77.6987L95.2297 80.9821C96.4693 93.6746 97.0916 100.018 93.3383 102.836C89.585 105.659 83.9403 103.084 72.6608 97.9426L69.7356 96.6137C66.531 95.149 64.9288 94.4215 63.2285 94.4215C61.5283 94.4215 59.926 95.149 56.7166 96.6137L53.8011 97.9426C42.5167 103.084 36.872 105.654 33.1236 102.841C29.3654 100.018 29.9877 93.6746 31.2274 80.9821L31.5508 77.7035C31.9036 74.0951 32.0799 72.2909 31.5508 70.6225C31.0314 68.9492 29.8603 67.5961 27.528 64.8995L25.4014 62.4357C17.1843 52.9296 13.0782 48.1718 14.509 43.6079C15.9446 39.044 21.9715 37.6909 34.0252 34.9943L37.1415 34.2959C40.5665 33.5296 42.2766 33.1464 43.6535 32.1134C45.0254 31.0803 45.9074 29.5138 47.6714 26.3807L49.2785 23.5289Z" fill="url(#paint0_linear_789_3)"/>
<path d="M50.5854 24.2651L50.5853 24.2653L48.9785 27.1166C48.9784 27.1167 48.9783 27.1169 48.9781 27.1171C48.9218 27.2172 48.8662 27.316 48.8112 27.4137C47.2099 30.2599 46.1817 32.0874 44.5558 33.3117L44.5537 33.3132C42.9147 34.543 40.9027 34.9925 37.7888 35.6882C37.6836 35.7117 37.5772 35.7355 37.4696 35.7596C37.4694 35.7596 37.4692 35.7597 37.469 35.7597L34.3532 36.458L34.3527 36.4581C28.2755 37.8177 23.8911 38.8041 20.8306 39.9983C17.7959 41.1824 16.4547 42.423 15.9403 44.0566L50.5854 24.2651ZM50.5854 24.2651C53.7142 18.7116 55.9798 14.6972 58.0279 12.0501C60.0731 9.40677 61.6209 8.5 63.2285 8.5C64.8361 8.5 66.3839 9.40677 68.4292 12.0501C70.4772 14.6972 72.7428 18.7116 75.8716 24.2651L75.8717 24.2653M50.5854 24.2651L75.8717 24.2653M75.8717 24.2653L77.4786 27.1166C77.535 27.2168 77.5908 27.3159 77.6458 27.4138C79.2471 30.2599 80.2753 32.0874 81.9013 33.3117C83.5355 34.5422 85.5527 34.9922 88.6649 35.6865C88.7731 35.7106 88.8825 35.735 88.9933 35.7598L92.1087 36.458C98.1862 37.8201 102.569 38.8064 105.629 40.0001C108.663 41.1837 110.003 42.4232 110.517 44.0571C111.033 45.701 110.646 47.542 108.854 50.3599C107.053 53.1927 104.062 56.6618 99.921 61.4545C99.9209 61.4547 99.9207 61.4548 99.9206 61.455L97.7945 63.9134L97.7937 63.9144M75.8717 24.2653L97.7937 63.9144M97.7937 63.9144C97.7164 64.0039 97.6401 64.0922 97.5647 64.1795C95.4473 66.6305 94.0873 68.2047 93.4704 70.168L93.47 70.1691M97.7937 63.9144L93.47 70.1691M93.47 70.1691C92.8532 72.1375 93.0587 74.2309 93.3816 77.5206C93.3921 77.6274 93.4027 77.7355 93.4134 77.8448L93.4135 77.8457M93.47 70.1691L93.4135 77.8457M93.4135 77.8457L93.7368 81.1279C94.3614 87.523 94.8105 92.1532 94.6579 95.5448C94.5055 98.9312 93.7659 100.64 92.4377 101.637L92.4367 101.637C91.127 102.622 89.3674 102.823 86.2313 101.933C83.0773 101.038 78.9703 99.1699 73.2829 96.5777L73.2812 96.5769M93.4135 77.8457L73.2812 96.5769M73.2812 96.5769L70.3591 95.2495C70.3586 95.2492 70.358 95.249 70.3574 95.2487C70.2673 95.2075 70.1782 95.1667 70.09 95.1264C67.1614 93.787 65.2691 92.9215 63.2285 92.9215C61.1906 92.9215 59.3 93.7849 56.3733 95.1215C56.2814 95.1635 56.1884 95.2059 56.0944 95.2488C56.0942 95.2489 56.094 95.249 56.0938 95.2491L53.1793 96.5776L73.2812 96.5769ZM33.0436 77.8495L33.0435 77.8507L32.7203 81.1279C32.0957 87.5231 31.6465 92.1531 31.7998 95.5451C31.9527 98.9314 32.6932 100.642 34.0245 101.642C35.3315 102.622 37.0902 102.822 40.2269 101.932C43.3811 101.037 47.4896 99.1697 53.179 96.5777L33.0436 77.8495ZM33.0436 77.8495C33.0545 77.738 33.0653 77.6279 33.076 77.519C33.3982 74.2321 33.6036 72.1372 32.9819 70.1731C32.368 68.2001 31.0027 66.6225 28.8807 64.1705C28.809 64.0876 28.7364 64.0037 28.663 63.9188C28.6628 63.9186 28.6626 63.9184 28.6625 63.9182L26.5369 61.4556L26.5362 61.4547M33.0436 77.8495L26.5362 61.4547M26.5362 61.4547C22.3953 56.6643 19.4044 53.1963 17.603 50.3636M26.5362 61.4547L17.603 50.3636M17.603 50.3636C15.8114 47.5463 15.424 45.7037 15.9402 44.0568L17.603 50.3636Z" stroke="#5BAB1C" stroke-width="3"/>
</g>
<defs>
<filter id="filter0_d_789_3" x="0.228516" y="0" width="126" height="125" filterUnits="userSpaceOnUse" color-interpolation-filters="sRGB">
<feFlood flood-opacity="0" result="BackgroundImageFix"/>
<feColorMatrix in="SourceAlpha" type="matrix" values="0 0 0 0 0 0 0 0 0 0 0 0 0 0 0 0 0 0 127 0" result="hardAlpha"/>
<feOffset dy="7"/>
<feGaussianBlur stdDeviation="7"/>
<feComposite in2="hardAlpha" operator="out"/>
<feColorMatrix type="matrix" values="0 0 0 0 0 0 0 0 0 0 0 0 0 0 0 0 0 0 0.35 0"/>
<feBlend mode="normal" in2="BackgroundImageFix" result="effect1_dropShadow_789_3"/>
<feBlend mode="normal" in="SourceGraphic" in2="effect1_dropShadow_789_3" result="shape"/>
</filter>
<linearGradient id="paint0_linear_789_3" x1="63.2285" y1="7" x2="63.2285" y2="104" gradientUnits="userSpaceOnUse">
<stop stop-color="#67B828"/>
<stop offset="0.0001" stop-color="#CFE869"/>
<stop offset="0.711458" stop-color="#67B828"/>
</linearGradient>
</defs>
</svg>
