<svg width="463" height="463" viewBox="0 0 463 463" fill="none" xmlns="http://www.w3.org/2000/svg">
<g clip-path="url(#clip0_436_1209)">
<path d="M164.462 394.689L135.574 380.13L252.05 149.021L280.939 163.581L164.462 394.689Z" fill="#433B6B"/>
<path d="M244.77 163.465L273.659 178.025L285.87 153.921C289.001 147.529 286.153 138.894 279.87 135.727L275.1 133.314C268.711 130.158 259.33 134.577 255.69 141.799L244.77 163.465ZM136.45 406.962L142.372 409.947C148.77 413.28 156.699 410.665 159.824 404.071L171.766 380.321L142.853 365.685L130.618 389.315C129.836 390.855 129.367 392.535 129.237 394.257C129.106 395.979 129.318 397.71 129.859 399.351C130.4 400.991 131.259 402.508 132.389 403.815C133.518 405.122 134.894 406.193 136.439 406.966L136.45 406.962Z" fill="#F4F4F4"/>
<path d="M318.569 62.8375C321.009 65.453 324.212 67.0944 327.839 67.4279L342.924 68.7998C343.927 68.8943 344.88 69.279 345.668 69.907C346.455 70.5349 347.043 71.3788 347.358 72.3354C347.674 73.2919 347.704 74.3197 347.444 75.293C347.185 76.2662 346.647 77.1428 345.897 77.8153L334.696 87.8562C332.007 90.2072 330.321 93.5002 329.987 97.0569L327.387 124.012C326.762 128.325 321.19 130.163 318.111 127.072L299.986 106.951C297.576 104.324 294.276 102.687 290.727 102.357L275.75 100.949C274.747 100.855 273.794 100.47 273.006 99.8422C272.219 99.2143 271.631 98.3704 271.316 97.4138C271 96.4572 270.97 95.4294 271.23 94.4562C271.489 93.4829 272.027 92.6064 272.777 91.9339L283.978 81.893C286.668 79.542 288.353 76.2489 288.687 72.6922L291.287 45.7367C291.912 41.4238 297.484 39.5861 300.563 42.6775L318.569 62.8375ZM198.654 116.596C196.162 116.402 193.831 115.291 192.11 113.479L179.43 99.7164C177.237 97.6333 173.272 98.9408 172.76 101.916L170.755 120.522C170.489 123.015 169.269 125.308 167.349 126.92L159.254 133.926C158.713 134.38 158.32 134.986 158.127 135.666C157.933 136.346 157.948 137.068 158.17 137.74C158.391 138.411 158.809 139 159.368 139.432C159.928 139.863 160.605 140.117 161.31 140.16L171.985 140.976C174.476 141.171 176.807 142.281 178.529 144.093L191.209 157.855C193.401 159.938 197.366 158.631 197.878 155.656L199.883 137.05C200.149 134.557 201.37 132.264 203.289 130.652L211.384 123.646C211.926 123.192 212.319 122.585 212.512 121.906C212.705 121.226 212.69 120.503 212.469 119.832C212.247 119.161 211.83 118.571 211.27 118.14C210.71 117.708 210.034 117.455 209.328 117.411L198.654 116.596ZM340.264 198.699C337.668 198.36 335.283 197.093 333.548 195.133L320.286 179.972C317.961 177.595 314.007 178.899 313.66 182.157L312.034 202.24C311.803 204.845 310.638 207.278 308.753 209.091L300.848 216.419C298.523 218.751 299.848 222.77 303.069 223.153L313.772 224.345C316.367 224.683 318.753 225.95 320.488 227.91L333.749 243.071C336.075 245.448 340.028 244.144 340.375 240.886L342.005 220.814C342.233 218.206 343.397 215.768 345.282 213.952L353.187 206.625C355.513 204.292 354.187 200.273 350.966 199.89L340.264 198.699ZM180.495 223.713C183.376 222.763 185.762 220.708 187.127 217.999C188.492 215.29 188.725 212.15 187.775 209.269C186.825 206.388 184.77 204.003 182.061 202.638C179.352 201.273 176.212 201.039 173.331 201.989C170.45 202.939 168.065 204.995 166.7 207.704C165.334 210.413 165.101 213.553 166.051 216.434C167.001 219.314 169.057 221.7 171.766 223.065C174.474 224.43 177.615 224.664 180.495 223.713ZM372.43 148.371C373.38 151.252 373.147 154.392 371.782 157.101C370.416 159.81 368.031 161.865 365.15 162.815C362.269 163.765 359.129 163.532 356.42 162.167C353.711 160.802 351.656 158.416 350.706 155.536C349.756 152.655 349.989 149.515 351.354 146.806C352.719 144.097 355.105 142.041 357.986 141.091C360.866 140.141 364.007 140.374 366.715 141.74C369.424 143.105 371.48 145.49 372.43 148.371ZM220.707 90.0173C223.588 89.0672 225.973 87.0117 227.339 84.3029C228.704 81.594 228.937 78.4538 227.987 75.573C227.037 72.6922 224.981 70.3068 222.273 68.9416C219.564 67.5764 216.424 67.3432 213.543 68.2932C210.662 69.2433 208.277 71.2989 206.911 74.0077C205.546 76.7165 205.313 79.8567 206.263 82.7375C207.213 85.6183 209.269 88.0037 211.977 89.3689C214.686 90.7342 217.826 90.9674 220.707 90.0173ZM292.467 271.09C293.418 273.971 293.184 277.111 291.819 279.82C290.454 282.528 288.068 284.584 285.188 285.534C282.307 286.484 279.167 286.251 276.458 284.886C273.749 283.52 271.693 281.135 270.743 278.254C269.793 275.373 270.027 272.233 271.392 269.524C272.757 266.816 275.142 264.76 278.023 263.81C280.904 262.86 284.044 263.093 286.753 264.458C289.462 265.824 291.517 268.209 292.467 271.09Z" fill="#F9C23C"/>
</g>
<defs>
<clipPath id="clip0_436_1209">
<rect width="366" height="366" fill="white" transform="translate(0 114.632) rotate(-18.2523)"/>
</clipPath>
</defs>
</svg>
