<svg width="24" height="24" viewBox="0 0 24 24" fill="none" xmlns="http://www.w3.org/2000/svg">
<path d="M13.26 3.29909C13.4165 3.18714 13.5997 3.11819 13.7911 3.09915C13.9826 3.08011 14.1758 3.11163 14.3512 3.19057C14.5267 3.26951 14.6785 3.39311 14.7912 3.54902C14.904 3.70494 14.9739 3.88771 14.994 4.07909L15 4.19309V19.8051C15.0001 19.9975 14.9496 20.1866 14.8538 20.3535C14.7579 20.5203 14.6199 20.6591 14.4536 20.756C14.2874 20.8528 14.0986 20.9044 13.9061 20.9054C13.7137 20.9065 13.5244 20.8571 13.357 20.7621L13.261 20.7001L6.68 15.9991H4C3.49542 15.9993 3.00943 15.8087 2.63945 15.4656C2.26947 15.1225 2.04284 14.6522 2.005 14.1491L2 13.9991V9.99909C2.00009 9.49469 2.19077 9.00895 2.53384 8.63918C2.8769 8.26941 3.34702 8.04292 3.85 8.00509L4 7.99909H6.68L13.26 3.29909ZM17.586 9.17109L19 10.5851L20.414 9.17109C20.5062 9.07558 20.6166 8.9994 20.7386 8.94699C20.8606 8.89458 20.9918 8.867 21.1246 8.86584C21.2574 8.86469 21.3891 8.88999 21.512 8.94027C21.6348 8.99055 21.7465 9.06481 21.8404 9.1587C21.9343 9.25259 22.0085 9.36424 22.0588 9.48714C22.1091 9.61004 22.1344 9.74172 22.1333 9.8745C22.1321 10.0073 22.1045 10.1385 22.0521 10.2605C21.9997 10.3825 21.9235 10.4928 21.828 10.5851L20.414 11.9991L21.828 13.4131C22.0156 13.6006 22.1211 13.855 22.1212 14.1202C22.1213 14.3855 22.016 14.64 21.8285 14.8276C21.641 15.0152 21.3866 15.1207 21.1214 15.1208C20.8561 15.1209 20.6016 15.0156 20.414 14.8281L19 13.4121L17.586 14.8271C17.3984 15.0146 17.1439 15.1199 16.8786 15.1198C16.6134 15.1197 16.359 15.0142 16.1715 14.8266C15.984 14.639 15.8787 14.3845 15.8788 14.1192C15.8789 13.854 15.9844 13.5996 16.172 13.4121L17.586 11.9991L16.172 10.5851C16.0765 10.4928 16.0003 10.3825 15.9479 10.2605C15.8955 10.1385 15.8679 10.0073 15.8667 9.8745C15.8656 9.74172 15.8909 9.61004 15.9412 9.48714C15.9915 9.36424 16.0657 9.25259 16.1596 9.1587C16.2535 9.06481 16.3652 8.99055 16.488 8.94027C16.6109 8.88999 16.7426 8.86469 16.8754 8.86584C17.0082 8.867 17.1394 8.89458 17.2614 8.94699C17.3834 8.9994 17.4938 9.07558 17.586 9.17109Z" fill="#676767"/>
</svg>
