<svg width="24" height="24" viewBox="0 0 24 24" fill="none" xmlns="http://www.w3.org/2000/svg">
<g clip-path="url(#clip0_1003_2)">
<path d="M13.26 3.29909C13.4165 3.18714 13.5997 3.11819 13.7911 3.09915C13.9826 3.08011 14.1758 3.11163 14.3512 3.19057C14.5267 3.26951 14.6785 3.39311 14.7912 3.54902C14.904 3.70494 14.9739 3.88771 14.994 4.07909L15 4.19309V19.8051C15.0001 19.9975 14.9496 20.1866 14.8538 20.3535C14.7579 20.5203 14.6199 20.6591 14.4536 20.756C14.2874 20.8528 14.0986 20.9044 13.9061 20.9054C13.7137 20.9065 13.5244 20.8571 13.357 20.7621L13.261 20.7001L6.68 15.9991H4C3.49542 15.9993 3.00943 15.8087 2.63945 15.4656C2.26947 15.1225 2.04284 14.6522 2.005 14.1491L2 13.9991V9.99909C1.99984 9.49452 2.19041 9.00853 2.5335 8.63855C2.87659 8.26856 3.34684 8.04194 3.85 8.00409L4 7.99909H6.68L13.26 3.29909ZM19.667 6.78209C20.4017 7.43805 20.9894 8.24197 21.3915 9.14108C21.7935 10.0402 22.0009 11.0142 22 11.9991C22.0009 12.984 21.7935 13.958 21.3915 14.8571C20.9894 15.7562 20.4017 16.5601 19.667 17.2161C19.5694 17.3051 19.4551 17.3739 19.3308 17.4185C19.2064 17.4631 19.0745 17.4827 18.9426 17.476C18.8106 17.4693 18.6813 17.4366 18.5621 17.3796C18.4429 17.3227 18.3362 17.2427 18.2481 17.1443C18.1599 17.0459 18.0922 16.931 18.0487 16.8062C18.0053 16.6815 17.987 16.5494 17.9949 16.4175C18.0028 16.2856 18.0367 16.1566 18.0948 16.038C18.1528 15.9193 18.2338 15.8133 18.333 15.7261C18.8582 15.2577 19.2782 14.6835 19.5656 14.0411C19.8529 13.3987 20.0009 12.7028 20 11.9991C20 10.5191 19.358 9.18909 18.333 8.27209C18.2338 8.18489 18.1528 8.0789 18.0948 7.96023C18.0367 7.84155 18.0028 7.71256 17.9949 7.58069C17.987 7.44883 18.0053 7.3167 18.0487 7.19195C18.0922 7.0672 18.1599 6.9523 18.2481 6.85388C18.3362 6.75546 18.4429 6.67547 18.5621 6.61854C18.6813 6.56161 18.8106 6.52886 18.9426 6.52219C19.0745 6.51551 19.2064 6.53504 19.3308 6.57965C19.4551 6.62426 19.5694 6.69307 19.667 6.78209ZM17.667 9.01809C18.0866 9.39283 18.4223 9.85204 18.652 10.3656C18.8818 10.8792 19.0003 11.4355 19 11.9981C19.0007 12.561 18.8823 13.1178 18.6525 13.6317C18.4228 14.1456 18.0869 14.6052 17.667 14.9801C17.4774 15.1485 17.2308 15.2386 16.9773 15.2321C16.7237 15.2256 16.4821 15.1229 16.3014 14.945C16.1206 14.7671 16.0143 14.5271 16.0038 14.2737C15.9933 14.0203 16.0796 13.7723 16.245 13.5801L16.333 13.4901C16.743 13.1221 17 12.5911 17 11.9991C17.0012 11.487 16.8049 10.9942 16.452 10.6231L16.333 10.5081C16.2338 10.4209 16.1528 10.3149 16.0948 10.1962C16.0367 10.0776 16.0028 9.94856 15.9949 9.81669C15.987 9.68483 16.0053 9.5527 16.0487 9.42795C16.0922 9.3032 16.1599 9.1883 16.2481 9.08988C16.3362 8.99146 16.4429 8.91147 16.5621 8.85454C16.6813 8.79761 16.8106 8.76486 16.9426 8.75819C17.0745 8.75151 17.2064 8.77104 17.3308 8.81565C17.4551 8.86026 17.5694 8.92907 17.667 9.01809Z" fill="#676767"/>
</g>
<defs>
<clipPath id="clip0_1003_2">
<rect width="24" height="24" fill="white"/>
</clipPath>
</defs>
</svg>
