<svg width="509" height="509" viewBox="0 0 509 509" fill="none" xmlns="http://www.w3.org/2000/svg">
<g clip-path="url(#clip0_436_1192)">
<path d="M257.236 458.277C284.532 457.734 306.481 448.28 306.26 437.161L304.763 361.981L205.914 363.949L207.411 439.13C207.632 450.248 229.939 458.82 257.236 458.277Z" fill="#FF6E83"/>
<path d="M256.288 410.621C287.432 410.001 312.473 399.215 312.221 386.53L310.688 309.543L197.908 311.788L199.441 388.775C199.694 401.46 225.145 411.241 256.288 410.621Z" fill="#BFBCAF"/>
<path d="M224.299 88.6791L242.488 39.6472C243.812 36.0789 247.778 34.2592 251.346 35.5832C252.232 35.9139 253.04 36.4225 253.722 37.0775C254.403 37.7326 254.944 38.5202 255.309 39.3919L275.436 87.6614C281.277 101.672 274.655 117.765 260.645 123.607C246.635 129.449 230.541 122.827 224.7 108.816C221.921 102.151 221.984 94.9584 224.299 88.6791Z" fill="#2B2622"/>
<path d="M198.674 344.408C198.691 344.496 198.708 344.584 198.728 344.671C201.083 356.527 225.623 365.429 255.375 364.837C285.127 364.244 309.294 354.372 311.173 342.431C311.19 342.345 311.203 342.257 311.217 342.17C311.231 342.06 311.25 341.95 311.261 341.839C311.295 341.532 311.317 341.223 311.31 340.906L311.307 340.746L311.308 340.746L307.748 161.989C307.748 161.989 268.678 74.7978 249.607 75.178C230.537 75.5582 194.968 164.234 194.968 164.234L198.531 343.15C198.537 343.467 198.571 343.776 198.617 344.082C198.632 344.191 198.656 344.299 198.674 344.408Z" fill="#FFD469"/>
<path d="M307.749 161.988L297.069 147.827C295.498 145.744 292.349 145.812 290.868 147.959L283.649 158.429C282.224 160.496 279.226 160.651 277.595 158.742L268.348 147.919C266.725 146.019 263.745 146.161 262.311 148.207L254.941 158.716C253.435 160.864 250.26 160.891 248.718 158.768L241.471 148.795C239.978 146.741 236.935 146.685 235.369 148.683L226.515 159.974C225.021 161.879 222.156 161.934 220.591 160.088L211.226 149.048C209.615 147.148 206.646 147.272 205.198 149.299L194.529 164.242L234.579 60.7365C234.809 72.2846 264.711 71.6897 264.481 60.1411L307.749 161.988Z" fill="#E5AA6E"/>
<path d="M286.208 177.727C286.861 177.047 287.701 176.576 288.622 176.374C289.543 176.171 290.504 176.247 291.382 176.59C292.26 176.933 293.017 177.53 293.556 178.303C294.096 179.077 294.393 179.993 294.412 180.935L297.385 330.22C297.408 331.483 296.929 332.704 296.053 333.614C295.177 334.524 293.975 335.05 292.712 335.075C291.449 335.1 290.228 334.623 289.316 333.748C288.405 332.873 287.878 331.673 287.851 330.409L284.879 181.125C284.865 180.499 284.976 179.876 285.204 179.293C285.432 178.71 285.773 178.177 286.208 177.727ZM246.742 181.884L249.715 331.169C249.727 331.795 249.862 332.414 250.112 332.988C250.363 333.562 250.725 334.082 251.176 334.516C251.628 334.951 252.16 335.292 252.744 335.521C253.328 335.749 253.951 335.86 254.577 335.848C255.204 335.836 255.822 335.7 256.396 335.448C256.97 335.197 257.489 334.835 257.923 334.382C258.357 333.93 258.697 333.397 258.925 332.813C259.152 332.229 259.263 331.606 259.249 330.979L256.276 181.694C256.249 180.431 255.722 179.23 254.811 178.356C253.899 177.481 252.677 177.004 251.414 177.029C250.151 177.054 248.95 177.58 248.074 178.49C247.198 179.401 246.719 180.621 246.742 181.884ZM208.607 182.644L211.579 331.928C211.59 332.555 211.725 333.173 211.976 333.747C212.227 334.322 212.588 334.841 213.04 335.276C213.491 335.71 214.024 336.052 214.608 336.28C215.191 336.509 215.814 336.62 216.441 336.607C217.067 336.595 217.685 336.459 218.259 336.208C218.833 335.956 219.352 335.594 219.786 335.142C220.22 334.69 220.561 334.156 220.788 333.572C221.016 332.988 221.126 332.365 221.113 331.739L218.141 182.454C218.114 181.191 217.586 179.99 216.675 179.116C215.763 178.241 214.542 177.764 213.279 177.789C212.015 177.814 210.814 178.34 209.938 179.25C209.062 180.16 208.583 181.381 208.607 182.644Z" fill="#FFB636"/>
</g>
<defs>
<clipPath id="clip0_436_1192">
<rect width="359.531" height="359.531" fill="white" transform="translate(508.352 249.115) rotate(133.859)"/>
</clipPath>
</defs>
</svg>
