<svg width="119" height="118" viewBox="0 0 119 118" fill="none" xmlns="http://www.w3.org/2000/svg">
<path d="M25.6309 59.3595C25.6309 63.7911 26.5111 68.1793 28.2214 72.2736C29.9317 76.3679 32.4385 80.088 35.5987 83.2217C38.7588 86.3553 42.5105 88.841 46.6395 90.5369C50.7685 92.2328 55.1939 93.1057 59.6631 93.1057C64.1322 93.1057 68.5576 92.2328 72.6866 90.5369C76.8156 88.841 80.5673 86.3553 83.7275 83.2217C86.8876 80.088 89.3944 76.3679 91.1047 72.2736C92.815 68.1793 93.6953 63.7911 93.6953 59.3595C93.6953 54.9279 92.815 50.5397 91.1047 46.4454C89.3944 42.3511 86.8876 38.6309 83.7275 35.4973C80.5673 32.3637 76.8156 29.878 72.6866 28.1821C68.5576 26.4862 64.1322 25.6133 59.6631 25.6133C55.1939 25.6133 50.7685 26.4862 46.6395 28.1821C42.5105 29.878 38.7588 32.3637 35.5987 35.4973C32.4385 38.6309 29.9317 42.3511 28.2214 46.4454C26.5111 50.5397 25.6309 54.9279 25.6309 59.3595ZM48.319 51.8603H48.3568H48.319ZM71.0071 51.8603H71.0449H71.0071Z" fill="#FFDA6A"/>
<path d="M48.319 51.8603H48.3568M71.0071 51.8603H71.0449M25.6309 59.3595C25.6309 63.7911 26.5111 68.1793 28.2214 72.2736C29.9317 76.3679 32.4385 80.088 35.5987 83.2217C38.7588 86.3553 42.5105 88.841 46.6395 90.5369C50.7685 92.2328 55.1939 93.1057 59.6631 93.1057C64.1322 93.1057 68.5576 92.2328 72.6866 90.5369C76.8156 88.841 80.5673 86.3553 83.7275 83.2217C86.8876 80.088 89.3944 76.3679 91.1047 72.2736C92.815 68.1793 93.6953 63.7911 93.6953 59.3595C93.6953 54.9279 92.815 50.5397 91.1047 46.4454C89.3944 42.3511 86.8876 38.6309 83.7275 35.4973C80.5673 32.3637 76.8156 29.878 72.6866 28.1821C68.5576 26.4862 64.1322 25.6133 59.6631 25.6133C55.1939 25.6133 50.7685 26.4862 46.6395 28.1821C42.5105 29.878 38.7588 32.3637 35.5987 35.4973C32.4385 38.6309 29.9317 42.3511 28.2214 46.4454C26.5111 50.5397 25.6309 54.9279 25.6309 59.3595Z" stroke="#676767" stroke-width="7" stroke-linecap="round" stroke-linejoin="round"/>
<path d="M50.209 70.6074C51.4412 71.8545 52.9121 72.8453 54.5353 73.5216C56.1586 74.198 57.9016 74.5464 59.6624 74.5464C61.4231 74.5464 63.1662 74.198 64.7894 73.5216C66.4127 72.8453 67.8835 71.8545 69.1158 70.6074" fill="#FFDA6A"/>
<path d="M50.209 70.6074C51.4412 71.8545 52.9121 72.8453 54.5353 73.5216C56.1586 74.198 57.9016 74.5464 59.6624 74.5464C61.4231 74.5464 63.1662 74.198 64.7894 73.5216C66.4127 72.8453 67.8835 71.8545 69.1158 70.6074" stroke="#676767" stroke-width="7" stroke-linecap="round" stroke-linejoin="round"/>
</svg>
