<svg width="399" height="265" viewBox="0 0 399 265" fill="none" xmlns="http://www.w3.org/2000/svg">
<path d="M66.0372 198.827C64.3112 199.538 62.8071 199.667 61.5248 199.214C60.2919 198.742 59.3199 197.642 58.6091 195.916C57.9185 194.24 57.8444 192.799 58.3868 191.595C58.9784 190.371 60.1373 189.404 61.8633 188.693L100.624 172.728C100.169 169.801 99.5143 166.812 98.6611 163.76C97.808 160.708 96.8635 157.925 95.8276 155.41L94.5785 152.377C94.2941 151.687 94.0228 151.308 93.7647 151.242C93.5065 151.175 93.1061 151.253 92.5637 151.477L61.2737 164.364C59.6956 165.014 58.251 165.147 56.9397 164.765C55.6575 164.312 54.6812 163.272 54.0109 161.645C53.3407 160.018 53.3115 158.616 53.9235 157.441C54.5849 156.246 55.7045 155.324 57.2826 154.674L94.3424 139.41C99.1259 137.44 102.482 138.797 104.412 143.482L107.184 150.213C108.362 153.074 109.314 156.085 110.04 159.247C110.794 162.339 111.379 165.299 111.794 168.128L117.342 165.843C120.843 164.401 123.285 165.356 124.666 168.71C126.067 172.112 125.017 174.535 121.516 175.977L99.4724 185.056L107.759 205.176C108.409 206.754 108.419 208.25 107.79 209.663C107.181 211.125 105.94 212.242 104.066 213.013C102.192 213.785 100.524 213.867 99.0614 213.258C97.6196 212.698 96.5737 211.629 95.9238 210.051L87.6369 189.931L66.0372 198.827ZM187.045 170.445C187.736 172.121 187.785 173.572 187.193 174.796C186.651 176 185.541 176.947 183.865 177.638C182.188 178.328 180.709 178.447 179.426 177.995C178.193 177.522 177.232 176.447 176.541 174.771L153.6 119.07C152.909 117.393 152.835 115.953 153.378 114.749C153.969 113.525 155.103 112.568 156.78 111.877C158.457 111.186 159.912 111.077 161.145 111.55C162.427 112.003 163.413 113.067 164.104 114.744L170.502 130.278L175.532 128.206L168.86 112.006C168.169 110.33 168.12 108.879 168.711 107.655C169.283 106.381 170.407 105.399 172.083 104.709C173.76 104.018 175.25 103.924 176.552 104.426C177.835 104.878 178.821 105.943 179.512 107.619L203.58 166.057C204.271 167.734 204.32 169.184 203.728 170.408C203.157 171.682 202.033 172.664 200.356 173.354C198.68 174.045 197.19 174.139 195.887 173.638C194.605 173.185 193.619 172.121 192.928 170.444L179.675 138.266L174.645 140.338L187.045 170.445ZM163.977 159.181C164.972 161.597 165.112 163.616 164.395 165.238C163.708 166.79 162.156 168.064 159.74 169.059L144.132 175.487C141.715 176.482 139.717 176.671 138.136 176.053C136.534 175.386 135.236 173.845 134.241 171.428L120.378 137.771C119.383 135.355 119.229 133.371 119.917 131.818C120.584 130.217 122.125 128.919 124.542 127.924L140.15 121.495C142.566 120.5 144.575 120.336 146.176 121.003C147.807 121.6 149.12 123.107 150.115 125.524L163.977 159.181ZM141.191 133.266C141.008 132.822 140.812 132.556 140.603 132.469C140.394 132.382 140.068 132.43 139.624 132.613L132.967 135.355C132.572 135.517 132.332 135.703 132.245 135.912C132.157 136.121 132.205 136.447 132.388 136.891L143.387 163.595C143.569 164.039 143.765 164.304 143.974 164.391C144.183 164.478 144.485 164.44 144.879 164.278L151.537 161.536C151.98 161.353 152.246 161.157 152.333 160.948C152.42 160.74 152.372 160.413 152.189 159.969L141.191 133.266ZM217.62 125.839L215.427 120.513C210.733 121.581 206.68 121.405 203.269 119.984C199.886 118.493 197.433 115.898 195.91 112.2C194.082 107.761 194.316 103.569 196.613 99.6238C198.911 95.6783 203.067 92.4666 209.084 89.9887C215.1 87.5107 220.313 86.8634 224.723 88.0466C229.132 89.2298 232.251 92.0405 234.079 96.4788C235.602 100.177 235.664 103.757 234.263 107.218C232.891 110.609 230.163 113.579 226.078 116.126L228.242 121.378C230.371 120.386 232.391 119.41 234.303 118.449C236.214 117.489 238.17 116.424 240.168 115.255C241.517 114.468 242.762 114.129 243.902 114.236C245.022 114.294 245.969 114.913 246.743 116.094C247.498 117.225 247.807 118.396 247.671 119.605C247.514 120.766 246.866 121.783 245.726 122.656C243.121 124.594 240.148 126.338 236.806 127.887C233.513 129.416 230.116 130.902 226.615 132.344L208.788 139.686C207.21 140.336 205.82 140.534 204.619 140.278C203.418 140.023 202.493 139.107 201.843 137.529C201.193 135.951 201.194 134.623 201.847 133.547C202.5 132.471 203.615 131.608 205.193 130.958L217.62 125.839ZM236.275 84.5862C235.565 82.8602 235.509 81.3256 236.11 79.9824C236.759 78.6189 237.947 77.5817 239.673 76.8708C241.449 76.1396 243.022 76.0394 244.394 76.5701C245.767 77.1009 246.808 78.2292 247.519 79.9552L252.79 92.7523L258.116 90.5587C259.694 89.9088 261.104 89.7607 262.345 90.1145C263.636 90.448 264.637 91.4778 265.348 93.2038C266.039 94.8805 266.043 96.2918 265.361 97.4377C264.729 98.5633 263.624 99.4511 262.046 100.101L256.72 102.295L263.514 118.79C264.225 120.516 264.255 122.061 263.606 123.425C263.005 124.768 261.842 125.795 260.116 126.506C258.39 127.217 256.816 127.317 255.395 126.806C254.023 126.276 252.981 125.147 252.27 123.421L236.275 84.5862ZM221.494 138.606C223.22 137.895 224.779 137.83 226.172 138.41C227.564 138.99 228.626 140.168 229.357 141.943L231.49 147.121C231.713 147.663 231.93 147.978 232.138 148.065C232.347 148.152 232.723 148.084 233.265 147.861L266.183 134.303C267.761 133.653 269.166 133.564 270.399 134.037C271.653 134.559 272.564 135.511 273.132 136.891C273.701 138.272 273.724 139.589 273.202 140.843C272.68 142.096 271.63 143.047 270.052 143.697L231.291 159.662C228.875 160.657 226.945 160.875 225.504 160.315C224.111 159.735 222.927 158.261 221.952 155.894L218.114 146.574C217.382 144.799 217.307 143.215 217.887 141.822C218.516 140.409 219.719 139.337 221.494 138.606ZM222.835 101.11C222.064 99.2358 220.72 98.1451 218.806 97.8378C216.94 97.5101 214.898 97.8033 212.679 98.7173C210.46 99.6313 208.779 100.872 207.636 102.438C206.542 103.985 206.382 105.695 207.153 107.569C207.925 109.443 209.244 110.543 211.109 110.871C213.024 111.178 215.091 110.875 217.31 109.961C219.529 109.047 221.185 107.817 222.279 106.271C223.422 104.704 223.607 102.984 222.835 101.11ZM291.218 104.871C288.802 105.866 286.942 106.113 285.64 105.611C284.337 105.109 283.188 103.65 282.193 101.234L277.44 89.6942C276.445 87.2778 276.243 85.4575 276.835 84.2333C277.406 82.9597 278.9 81.8253 281.317 80.83L312.163 68.1255C312.557 67.963 312.683 67.7092 312.541 67.364L310.652 62.7777C310.51 62.4325 310.242 62.3412 309.847 62.5037L277.67 75.7566C276.092 76.4066 274.672 76.53 273.41 76.1268C272.177 75.6541 271.256 74.678 270.646 73.1986C270.037 71.7192 270.014 70.4021 270.576 69.2475C271.168 68.0232 272.253 67.0861 273.831 66.4362L311.482 50.9287C313.899 49.9335 315.734 49.6969 316.987 50.219C318.289 50.7207 319.438 52.1798 320.434 54.5962L325.125 65.9878C326.1 68.3549 326.302 70.1752 325.731 71.4488C325.209 72.7021 323.739 73.8263 321.323 74.8216L290.477 87.5261C290.082 87.6886 289.977 87.9917 290.159 88.4356L292.079 93.0958C292.201 93.3917 292.459 93.4584 292.853 93.2959L326.51 79.4336C328.088 78.7837 329.484 78.6704 330.696 79.0938C331.909 79.5173 332.83 80.4934 333.46 82.0221C334.089 83.5509 334.123 84.8925 333.56 86.0472C332.998 87.2018 331.927 88.1041 330.349 88.754L325.911 90.582L329.201 98.571L340.371 93.9705C342.048 93.2799 343.527 93.1609 344.809 93.6133C346.092 94.0657 347.078 95.1303 347.769 96.807C348.459 98.4837 348.509 99.9342 347.917 101.158C347.325 102.383 346.191 103.34 344.514 104.031L289.036 126.881C287.359 127.571 285.88 127.69 284.597 127.238C283.315 126.785 282.329 125.721 281.638 124.044C280.947 122.367 280.898 120.917 281.49 119.693C282.081 118.468 283.216 117.511 284.892 116.82L296.062 112.22L292.772 104.231L291.218 104.871ZM307.01 107.711L318.253 103.08L314.963 95.0911L303.719 99.722L307.01 107.711Z" fill="#B74506"/>
<rect x="5" y="142.213" width="369" height="127" rx="15" transform="rotate(-21.8297 5 142.213)" stroke="#B74506" stroke-width="17"/>
</svg>
