<svg width="281" height="281" viewBox="0 0 281 281" fill="none" xmlns="http://www.w3.org/2000/svg">
<path d="M90.9345 219.887C95.8637 219.887 100.591 221.845 104.077 225.33C107.562 228.816 109.52 233.543 109.52 238.473C109.52 243.402 107.562 248.129 104.077 251.615C100.591 255.1 95.8637 257.058 90.9345 257.058C86.0052 257.058 81.2778 255.1 77.7923 251.615C74.3068 248.129 72.3486 243.402 72.3486 238.473C72.3486 233.543 74.3068 228.816 77.7923 225.33C81.2778 221.845 86.0052 219.887 90.9345 219.887ZM202.449 219.887C207.379 219.887 212.106 221.845 215.592 225.33C219.077 228.816 221.035 233.543 221.035 238.473C221.035 243.402 219.077 248.129 215.592 251.615C212.106 255.1 207.379 257.058 202.449 257.058C197.52 257.058 192.793 255.1 189.307 251.615C185.822 248.129 183.864 243.402 183.864 238.473C183.864 233.543 185.822 228.816 189.307 225.33C192.793 221.845 197.52 219.887 202.449 219.887Z" stroke="#4293F7" stroke-width="18"/>
<path d="M25.8728 25.2543C23.5461 24.436 20.9898 24.5755 18.766 25.6421C16.5423 26.7086 14.8333 28.6149 14.015 30.9415C13.1967 33.2681 13.3362 35.8245 14.4028 38.0483C15.4694 40.272 17.3757 41.981 19.7023 42.7993L25.8728 25.2543ZM253.97 119.311L263.065 121.182L263.077 121.132L253.97 119.311ZM254.912 79.847L247.552 85.4971L254.924 79.8346L254.912 79.847ZM68.7317 117.787V84.0598H50.1458V117.787H68.7317ZM29.1067 26.3942L25.8728 25.2543L19.7023 42.7993L22.9362 43.9268L29.1067 26.3942ZM133.534 198.202H199.229V179.616H133.534V198.202ZM68.7317 84.0598C68.7317 75.2997 68.7441 67.9893 68.1121 62.0542C67.4307 55.8961 66.0057 50.2832 62.5116 45.1783L47.1597 55.6607C48.2749 57.2962 49.1422 59.5513 49.6254 64.0491C50.1334 68.7575 50.1458 74.8908 50.1458 84.0598H68.7317ZM22.9362 43.9268C31.2131 46.8386 36.6525 48.7715 40.6547 50.754C44.409 52.5878 46.0694 54.0747 47.1597 55.6731L62.5116 45.1783C58.9927 40.0238 54.2967 36.7279 48.8324 34.0392C43.6284 31.4867 36.9623 29.1573 29.1067 26.3942L22.9362 43.9268ZM50.1458 117.787C50.1458 135.79 50.3193 148.763 52.0044 158.676C53.8258 169.257 57.4563 176.84 64.2091 183.977L77.7024 171.19C73.7374 167.002 71.5939 162.913 70.33 155.541C68.9671 147.487 68.7317 136.236 68.7317 117.787H50.1458ZM133.534 179.616C115.977 179.616 103.797 179.591 94.6155 178.29C85.7563 177.038 81.085 174.759 77.7024 171.19L64.2091 183.977C71.5691 191.746 80.8992 195.129 92.0011 196.69C102.781 198.226 116.547 198.202 133.534 198.202V179.616ZM59.4388 81.9782H209.736V63.3924H59.4511L59.4388 81.9782ZM244.863 117.428L238.668 147.475L256.882 151.217L263.065 121.182L244.863 117.428ZM209.761 81.9782C220.367 81.9782 229.71 81.9906 237.082 82.8084C240.737 83.2296 243.488 83.7996 245.408 84.4687C247.403 85.175 247.726 85.7078 247.564 85.4971L262.297 74.1721C259.385 70.3806 255.296 68.2371 251.567 66.9361C247.533 65.6102 243.365 64.7375 239.139 64.3341C230.527 63.38 220.02 63.3924 209.761 63.3924V81.9782ZM263.077 121.132C265.184 110.625 266.968 101.803 267.402 94.7405C267.86 87.4796 267.03 80.3179 262.297 74.1721L247.564 85.4971C248.333 86.5007 249.175 88.2974 248.853 93.6005C248.519 99.1019 247.069 106.45 244.863 117.49L263.077 121.132ZM199.229 198.202C208.671 198.202 216.6 198.214 222.994 197.433C229.623 196.628 235.682 194.844 240.96 190.544L229.214 176.134C227.665 177.398 225.472 178.414 220.727 178.984C215.733 179.603 209.141 179.616 199.229 179.616V198.202ZM238.693 147.475C236.686 157.176 235.347 163.62 233.737 168.39C232.213 172.925 230.763 174.87 229.214 176.134L240.96 190.544C246.251 186.232 249.212 180.669 251.344 174.325C253.4 168.229 254.986 160.472 256.895 151.229L238.693 147.475Z" fill="#4293F7"/>
<path d="M202.45 77.3945L183.864 182.714M109.521 77.3945L128.106 182.714" stroke="#4293F7" stroke-width="18" stroke-linecap="round"/>
</svg>
