<svg width="117" height="117" viewBox="0 0 117 117" fill="none" xmlns="http://www.w3.org/2000/svg">
<circle cx="58.9883" cy="58.9979" r="57.0137" transform="rotate(179 58.9883 58.9979)" fill="white"/>
<path d="M50.1264 85.0153C50.4584 85.3354 50.8506 85.5871 51.2805 85.756C51.7104 85.9249 52.1695 86.0077 52.6316 85.9996C53.0936 85.9916 53.5496 85.8928 53.9733 85.709C54.397 85.5252 54.7802 85.26 55.1008 84.9285L78.3255 60.9802C78.5815 60.7167 78.7829 60.4056 78.918 60.0646C79.0531 59.7236 79.1194 59.3594 79.113 58.9929C79.1066 58.6264 79.0277 58.2647 78.8807 57.9286C78.7338 57.5925 78.5217 57.2886 78.2567 57.0342L54.2103 33.9111C52.8093 32.5638 50.5891 32.6026 49.2359 33.9979C47.8827 35.3932 47.9213 37.6041 49.3224 38.9513L70.3093 59.1325L50.0119 80.0624C48.6868 81.4572 48.7254 83.6681 50.1264 85.0153Z" fill="#676767"/>
</svg>
