<svg width="116" height="116" viewBox="0 0 116 116" fill="none" xmlns="http://www.w3.org/2000/svg">
<circle cx="58" cy="58" r="58" fill="white"/>
<path d="M68.9455 32.0457C68.6135 31.7142 68.2191 31.4512 67.7848 31.2718C67.3506 31.0924 66.8851 31 66.4149 31C65.9448 31 65.4792 31.0924 65.045 31.2718C64.6108 31.4512 64.2163 31.7142 63.8843 32.0457L39.8362 55.9922C39.5711 56.2556 39.3608 56.5685 39.2174 56.913C39.0739 57.2574 39 57.6267 39 57.9996C39 58.3725 39.0739 58.7418 39.2174 59.0863C39.3608 59.4307 39.5711 59.7436 39.8362 60.007L63.8843 83.9536C65.2854 85.3488 67.5444 85.3488 68.9455 83.9536C70.3467 82.5584 70.3467 80.3089 68.9455 78.9137L47.9571 58.0139L68.9741 37.0855C70.3467 35.6903 70.3467 33.4409 68.9455 32.0457Z" fill="#676767"/>
</svg>
