<svg width="75" height="75" viewBox="0 0 75 75" fill="none" xmlns="http://www.w3.org/2000/svg">
<path d="M4 37.5C4 41.8993 4.8665 46.2555 6.55004 50.3199C8.23357 54.3843 10.7012 58.0773 13.8119 61.1881C16.9227 64.2988 20.6157 66.7664 24.6801 68.45C28.7445 70.1335 33.1007 71 37.5 71C41.8993 71 46.2555 70.1335 50.3199 68.45C54.3843 66.7664 58.0773 64.2988 61.1881 61.1881C64.2988 58.0773 66.7664 54.3843 68.45 50.3199C70.1335 46.2555 71 41.8993 71 37.5C71 33.1007 70.1335 28.7445 68.45 24.6801C66.7664 20.6157 64.2988 16.9227 61.1881 13.8119C58.0773 10.7012 54.3843 8.23357 50.3199 6.55004C46.2555 4.8665 41.8993 4 37.5 4C33.1007 4 28.7445 4.8665 24.6801 6.55004C20.6157 8.23357 16.9227 10.7012 13.8119 13.8119C10.7012 16.9227 8.23357 20.6157 6.55004 24.6801C4.8665 28.7445 4 33.1007 4 37.5ZM26.3333 26.3333H26.3706H26.3333ZM48.6667 26.3333H48.7039H48.6667Z" fill="#FFDA6A"/>
<path d="M26.3333 26.3333H26.3706M48.6667 26.3333H48.7039M4 37.5C4 41.8993 4.8665 46.2555 6.55004 50.3199C8.23357 54.3843 10.7012 58.0773 13.8119 61.1881C16.9227 64.2988 20.6157 66.7664 24.6801 68.45C28.7445 70.1335 33.1007 71 37.5 71C41.8993 71 46.2555 70.1335 50.3199 68.45C54.3843 66.7664 58.0773 64.2988 61.1881 61.1881C64.2988 58.0773 66.7664 54.3843 68.45 50.3199C70.1335 46.2555 71 41.8993 71 37.5C71 33.1007 70.1335 28.7445 68.45 24.6801C66.7664 20.6157 64.2988 16.9227 61.1881 13.8119C58.0773 10.7012 54.3843 8.23357 50.3199 6.55004C46.2555 4.8665 41.8993 4 37.5 4C33.1007 4 28.7445 4.8665 24.6801 6.55004C20.6157 8.23357 16.9227 10.7012 13.8119 13.8119C10.7012 16.9227 8.23357 20.6157 6.55004 24.6801C4.8665 28.7445 4 33.1007 4 37.5Z" stroke="#676767" stroke-width="7" stroke-linecap="round" stroke-linejoin="round"/>
<path d="M30.0547 48.6671C30.0547 50.6415 30.839 52.535 32.2351 53.9311C33.6312 55.3272 35.5247 56.1115 37.4991 56.1115C39.4735 56.1115 41.367 55.3272 42.7631 53.9311C44.1593 52.535 44.9436 50.6415 44.9436 48.6671C44.9436 46.6927 44.1593 44.7992 42.7631 43.4031C41.367 42.007 39.4735 41.2227 37.4991 41.2227C35.5247 41.2227 33.6312 42.007 32.2351 43.4031C30.839 44.7992 30.0547 46.6927 30.0547 48.6671Z" fill="#FFDA6A" stroke="#676767" stroke-width="7" stroke-linecap="round" stroke-linejoin="round"/>
</svg>
